{"title":"Closer(2004)[DvDrip Xvid][Eng AC3 6ch][19 Subs]Omifast Greek","uid":5054851,"size":1582183329,"categoryP":"video","categoryS":"movies","magnet":"?xt=urn:btih:ab8e77f142031bfe1b460264a7208ec5699de856&amp;dn=Closer%282004%29%5BDvDrip+Xvid%5D%5BEng+AC3+6ch%5D%5B19+Subs%5DOmifast+Greek&amp;tr=udp%3A%2F%2Ftracker.openbittorrent.com%3A80&amp;tr=udp%3A%2F%2Fopen.demonii.com%3A1337&amp;tr=udp%3A%2F%2Ftracker.coppersurfer.tk%3A6969&amp;tr=udp%3A%2F%2Fexodus.desync.com%3A6969","seeders":0,"leechers":1,"uploader":"OmifastGR","files":-1,"time":1250358031,"description":"SUBTITLES:\n\nGreek\nEnglish\nEspanol\nPortugese\nNederlands\nArabic\nBulgarian\nHrvatski\nDansk\nSuomi\nHebrew\nHindi\nIslenska\nNorsk\nRomanian\nSerbian\nSlovenian\nSvenska\nTurkish\n\nMovie Trailer, Sample, Snapsots, English and Greek Info.txt Included\n\n--------------------------------------------------------------------\n\nCloser (2004/I) DvDrip Xvid\n &lt;a href=&quot;\nhttp://www.imdb.com/title/tt0376541/&quot; rel=&quot;nofollow&quot; target=&quot;_NEW&quot;&gt;\nhttp://www.imdb.com/title/tt0376541/&lt;/a&gt;\n\nPlot: Set in contemporary London, a story of passion, drama, love, and abandonment involving four strangers--their chance meetings, instant attractions and casual betrayals. \n\nStarring: Jude Law, Natalie Portman, Clive Owen, Julia Roberts, Nick Hobbs\n\n-----------------------------------------------------------------------\n\nGeneral\n\nFormat                           : AVI\nFormat/Info                      : Audio Video Interleave\nFile size                        : 1.37 GiB\nDuration                         : 1h 39mn\nOverall bit rate                 : 1 965 Kbps\nWriting application              : VirtualDubMod 1.5.4.1 (build 2178/release)\nWriting library                  : VirtualDubMod build 2178/release\n\nVideo\nID                               : 0\nFormat                           : MPEG-4 Visual\nFormat profile                   : AdvancedSimple@L5\nFormat settings, BVOP            : Yes\nFormat settings, QPel            : No\nFormat settings, GMC             : No warppoints\nFormat settings, Matrix          : Custom\nCodec ID                         : XVID\nCodec ID/Hint                    : XviD\nDuration                         : 1h 39mn\nBit rate                         : 1 510 Kbps\nWidth                            : 848 pixels\nHeight                           : 464 pixels\nDisplay aspect ratio             : 16:9\nFrame rate                       : 25.000 fps\nResolution                       : 24 bits\nColorimetry                      : 4:2:0\nScan type                        : Progressive\nBits/(Pixel*Frame)               : 0.154\nStream size                      : 1.05 GiB (77%)\nWriting library                  : XviD 1.2.1 (UTC 2008-12-04)\n\nAudio\nID                               : 1\nFormat                           : AC-3\nFormat/Info                      : Audio Coding 3\nCodec ID                         : 2000\nDuration                         : 1h 39mn\nBit rate mode                    : Constant\nBit rate                         : 448 Kbps\nChannel(s)                       : 6 channels\nChannel positions                : Front: L C R, Surround: L R, LFE\nSampling rate                    : 48.0 KHz\nStream size                      : 319 MiB (23%)\nAlignment                        : Split accross interleaves\nInterleave, duration             : 96 ms (2.40 video frames)\nInterleave, preload duration     : 96 ms\nLanguage                         : English\n\n\n!","torrent":{"xt":"urn:btih:ab8e77f142031bfe1b460264a7208ec5699de856","amp;dn":"Closer%282004%29%5BDvDrip+Xvid%5D%5BEng+AC3+6ch%5D%5B19+Subs%5DOmifast+Greek","amp;tr":["udp%3A%2F%2Ftracker.openbittorrent.com%3A80","udp%3A%2F%2Fopen.demonii.com%3A1337","udp%3A%2F%2Ftracker.coppersurfer.tk%3A6969","udp%3A%2F%2Fexodus.desync.com%3A6969"],"infoHash":"ab8e77f142031bfe1b460264a7208ec5699de856","infoHashBuffer":{"type":"Buffer","data":[171,142,119,241,66,3,27,254,27,70,2,100,167,32,142,197,105,157,232,86]},"announce":[],"urlList":[]}}